<?xml version="1.0" encoding="iso-8859-1"?>
<!-- Uploaded to: SVG Repo, www.svgrepo.com, Generator: SVG Repo Mixer Tools -->
<!DOCTYPE svg PUBLIC "-//W3C//DTD SVG 1.1//EN" "http://www.w3.org/Graphics/SVG/1.1/DTD/svg11.dtd">
<svg fill="#000000" version="1.1" id="Capa_1" xmlns="http://www.w3.org/2000/svg" xmlns:xlink="http://www.w3.org/1999/xlink" 
	 width="800px" height="800px" viewBox="0 0 35.469 35.469"
	 xml:space="preserve">
<g>
	<path d="M35.469,18.384c0,9.104-7.406,16.512-16.512,16.512c-9.078,0-16.465-7.365-16.507-16.434H0l3.669-5.506l3.669,5.506H5.201
		c0.042,7.551,6.195,13.682,13.755,13.682c7.587,0,13.76-6.172,13.76-13.76c0-7.588-6.173-13.76-13.76-13.76
		c-0.761,0-1.376-0.617-1.376-1.377c0-0.76,0.615-1.375,1.376-1.375C28.062,1.873,35.469,9.28,35.469,18.384z M18.959,28.628
		c-5.648,0-10.244-4.595-10.244-10.244c0-0.254-0.205-0.459-0.459-0.459c-0.253,0-0.458,0.205-0.458,0.459
		c0,6.154,5.007,11.162,11.161,11.162c6.152,0,11.16-5.008,11.16-11.162c0-6.152-5.008-11.162-11.16-11.162
		c-0.253,0-0.458,0.207-0.458,0.46c0,0.254,0.205,0.459,0.458,0.459c5.646,0,10.242,4.596,10.242,10.242
		C29.201,24.033,24.605,28.628,18.959,28.628z M13.661,25.081c0.269,0.27,0.621,0.402,0.973,0.402s0.704-0.135,0.973-0.402
		l4.324-4.324c0.259-0.258,0.403-0.606,0.403-0.973v-7.783c0-0.761-0.616-1.377-1.376-1.377c-0.761,0-1.376,0.616-1.376,1.377v7.212
		l-3.92,3.92C13.125,23.671,13.125,24.542,13.661,25.081z M3.212,7.224c0-3.674,2.978-6.65,6.65-6.65s6.65,2.979,6.65,6.65
		c0,3.671-2.978,6.65-6.65,6.65S3.212,10.896,3.212,7.224z M5.235,7.318l2.969,2.968c0.179,0.18,0.414,0.271,0.648,0.271
		c0.235,0,0.47-0.09,0.649-0.271l4.974-4.975c0.358-0.358,0.358-0.938,0-1.297c-0.358-0.359-0.939-0.358-1.297,0L8.852,8.338
		l-2.32-2.318c-0.358-0.357-0.94-0.357-1.297,0C4.876,6.38,4.876,6.96,5.235,7.318z"/>
</g>
</svg>